<mxfile modified="2024-06-18T12:58:40.408Z" host="app.diagrams.net" agent="Mozilla/5.0 (Windows NT 10.0; Win64; x64) AppleWebKit/537.36 (KHTML, like Gecko) Chrome/125.0.0.0 Safari/537.36" etag="EnfCrHki6Rsc66W1mo-Q" version="24.5.5" type="device">
  <diagram id="Ht1M8jgEwFfnCIfOTk4-" name="Page-1">
    <mxGraphModel dx="1434" dy="926" grid="1" gridSize="10" guides="1" tooltips="1" connect="1" arrows="1" fold="1" page="1" pageScale="1" pageWidth="1169" pageHeight="827" math="0" shadow="0">
      <root>
        <mxCell id="0" />
        <mxCell id="1" parent="0" />
        <mxCell id="B4_wK3r7UxZ_RFMzxxa5-6" value="AWS Cloud" style="points=[[0,0],[0.25,0],[0.5,0],[0.75,0],[1,0],[1,0.25],[1,0.5],[1,0.75],[1,1],[0.75,1],[0.5,1],[0.25,1],[0,1],[0,0.75],[0,0.5],[0,0.25]];outlineConnect=0;gradientColor=none;html=1;whiteSpace=wrap;fontSize=12;fontStyle=0;container=1;pointerEvents=0;collapsible=0;recursiveResize=0;shape=mxgraph.aws4.group;grIcon=mxgraph.aws4.group_aws_cloud_alt;strokeColor=#232F3E;fillColor=none;verticalAlign=top;align=left;spacingLeft=30;fontColor=#232F3E;dashed=0;" vertex="1" parent="1">
          <mxGeometry x="180" y="70" width="1110" height="690" as="geometry" />
        </mxCell>
        <mxCell id="B4_wK3r7UxZ_RFMzxxa5-9" value="us-east-1" style="points=[[0,0],[0.25,0],[0.5,0],[0.75,0],[1,0],[1,0.25],[1,0.5],[1,0.75],[1,1],[0.75,1],[0.5,1],[0.25,1],[0,1],[0,0.75],[0,0.5],[0,0.25]];outlineConnect=0;gradientColor=none;html=1;whiteSpace=wrap;fontSize=12;fontStyle=0;container=1;pointerEvents=0;collapsible=0;recursiveResize=0;shape=mxgraph.aws4.group;grIcon=mxgraph.aws4.group_region;strokeColor=#00A4A6;fillColor=none;verticalAlign=top;align=left;spacingLeft=30;fontColor=#147EBA;dashed=1;" vertex="1" parent="B4_wK3r7UxZ_RFMzxxa5-6">
          <mxGeometry x="180" y="50" width="910" height="630" as="geometry" />
        </mxCell>
        <mxCell id="B4_wK3r7UxZ_RFMzxxa5-14" value="VPC" style="points=[[0,0],[0.25,0],[0.5,0],[0.75,0],[1,0],[1,0.25],[1,0.5],[1,0.75],[1,1],[0.75,1],[0.5,1],[0.25,1],[0,1],[0,0.75],[0,0.5],[0,0.25]];outlineConnect=0;gradientColor=none;html=1;whiteSpace=wrap;fontSize=12;fontStyle=0;container=1;pointerEvents=0;collapsible=0;recursiveResize=0;shape=mxgraph.aws4.group;grIcon=mxgraph.aws4.group_vpc2;strokeColor=#8C4FFF;fillColor=none;verticalAlign=top;align=left;spacingLeft=30;fontColor=#AAB7B8;dashed=0;" vertex="1" parent="B4_wK3r7UxZ_RFMzxxa5-9">
          <mxGeometry x="100" y="20" width="800" height="590" as="geometry" />
        </mxCell>
        <mxCell id="B4_wK3r7UxZ_RFMzxxa5-42" style="edgeStyle=orthogonalEdgeStyle;rounded=0;orthogonalLoop=1;jettySize=auto;html=1;entryX=0;entryY=0.5;entryDx=0;entryDy=0;" edge="1" parent="B4_wK3r7UxZ_RFMzxxa5-14" source="B4_wK3r7UxZ_RFMzxxa5-15" target="B4_wK3r7UxZ_RFMzxxa5-40">
          <mxGeometry relative="1" as="geometry" />
        </mxCell>
        <mxCell id="B4_wK3r7UxZ_RFMzxxa5-15" value="" style="sketch=0;outlineConnect=0;fontColor=#232F3E;gradientColor=none;fillColor=#8C4FFF;strokeColor=none;dashed=0;verticalLabelPosition=bottom;verticalAlign=top;align=center;html=1;fontSize=12;fontStyle=0;aspect=fixed;pointerEvents=1;shape=mxgraph.aws4.application_load_balancer;" vertex="1" parent="B4_wK3r7UxZ_RFMzxxa5-14">
          <mxGeometry x="20" y="235" width="90" height="90" as="geometry" />
        </mxCell>
        <mxCell id="B4_wK3r7UxZ_RFMzxxa5-17" value="Availability Zone us-east-1a" style="fillColor=none;strokeColor=#147EBA;dashed=1;verticalAlign=top;fontStyle=0;fontColor=#147EBA;whiteSpace=wrap;html=1;" vertex="1" parent="B4_wK3r7UxZ_RFMzxxa5-14">
          <mxGeometry x="230" y="10" width="550" height="230" as="geometry" />
        </mxCell>
        <mxCell id="B4_wK3r7UxZ_RFMzxxa5-18" value="Public subnet" style="points=[[0,0],[0.25,0],[0.5,0],[0.75,0],[1,0],[1,0.25],[1,0.5],[1,0.75],[1,1],[0.75,1],[0.5,1],[0.25,1],[0,1],[0,0.75],[0,0.5],[0,0.25]];outlineConnect=0;gradientColor=none;html=1;whiteSpace=wrap;fontSize=12;fontStyle=0;container=1;pointerEvents=0;collapsible=0;recursiveResize=0;shape=mxgraph.aws4.group;grIcon=mxgraph.aws4.group_security_group;grStroke=0;strokeColor=#7AA116;fillColor=#F2F6E8;verticalAlign=top;align=left;spacingLeft=30;fontColor=#248814;dashed=0;" vertex="1" parent="B4_wK3r7UxZ_RFMzxxa5-14">
          <mxGeometry x="260" y="60" width="240" height="170" as="geometry" />
        </mxCell>
        <mxCell id="B4_wK3r7UxZ_RFMzxxa5-24" value="&lt;span style=&quot;color: rgb(35, 47, 62); font-family: Helvetica; font-size: 12px; font-style: normal; font-variant-ligatures: normal; font-variant-caps: normal; font-weight: 400; letter-spacing: normal; orphans: 2; text-align: center; text-indent: 0px; text-transform: none; widows: 2; word-spacing: 0px; -webkit-text-stroke-width: 0px; white-space: nowrap; background-color: rgb(251, 251, 251); text-decoration-thickness: initial; text-decoration-style: initial; text-decoration-color: initial; display: inline !important; float: none;&quot;&gt;Web service&amp;nbsp;&lt;/span&gt;&lt;br style=&quot;forced-color-adjust: none; color: rgb(35, 47, 62); font-family: Helvetica; font-size: 12px; font-style: normal; font-variant-ligatures: normal; font-variant-caps: normal; font-weight: 400; letter-spacing: normal; orphans: 2; text-align: center; text-indent: 0px; text-transform: none; widows: 2; word-spacing: 0px; -webkit-text-stroke-width: 0px; white-space: nowrap; background-color: rgb(251, 251, 251); text-decoration-thickness: initial; text-decoration-style: initial; text-decoration-color: initial;&quot;&gt;&lt;span style=&quot;color: rgb(35, 47, 62); font-family: Helvetica; font-size: 12px; font-style: normal; font-variant-ligatures: normal; font-variant-caps: normal; font-weight: 400; letter-spacing: normal; orphans: 2; text-align: center; text-indent: 0px; text-transform: none; widows: 2; word-spacing: 0px; -webkit-text-stroke-width: 0px; white-space: nowrap; background-color: rgb(251, 251, 251); text-decoration-thickness: initial; text-decoration-style: initial; text-decoration-color: initial; display: inline !important; float: none;&quot;&gt;c5a.8xlarge&lt;/span&gt;&lt;div&gt;&lt;br/&gt;&lt;/div&gt;" style="sketch=0;points=[[0,0,0],[0.25,0,0],[0.5,0,0],[0.75,0,0],[1,0,0],[0,1,0],[0.25,1,0],[0.5,1,0],[0.75,1,0],[1,1,0],[0,0.25,0],[0,0.5,0],[0,0.75,0],[1,0.25,0],[1,0.5,0],[1,0.75,0]];outlineConnect=0;fontColor=#232F3E;fillColor=#ED7100;strokeColor=#ffffff;dashed=0;verticalLabelPosition=bottom;verticalAlign=top;align=center;html=1;fontSize=12;fontStyle=0;aspect=fixed;shape=mxgraph.aws4.resourceIcon;resIcon=mxgraph.aws4.ec2;" vertex="1" parent="B4_wK3r7UxZ_RFMzxxa5-14">
          <mxGeometry x="390" y="96" width="78" height="78" as="geometry" />
        </mxCell>
        <mxCell id="B4_wK3r7UxZ_RFMzxxa5-19" value="" style="sketch=0;outlineConnect=0;fontColor=#232F3E;gradientColor=none;fillColor=#8C4FFF;strokeColor=none;dashed=0;verticalLabelPosition=bottom;verticalAlign=top;align=center;html=1;fontSize=12;fontStyle=0;aspect=fixed;pointerEvents=1;shape=mxgraph.aws4.nat_gateway;" vertex="1" parent="B4_wK3r7UxZ_RFMzxxa5-14">
          <mxGeometry x="280" y="100" width="78" height="78" as="geometry" />
        </mxCell>
        <mxCell id="B4_wK3r7UxZ_RFMzxxa5-25" value="Private subnet" style="points=[[0,0],[0.25,0],[0.5,0],[0.75,0],[1,0],[1,0.25],[1,0.5],[1,0.75],[1,1],[0.75,1],[0.5,1],[0.25,1],[0,1],[0,0.75],[0,0.5],[0,0.25]];outlineConnect=0;gradientColor=none;html=1;whiteSpace=wrap;fontSize=12;fontStyle=0;container=1;pointerEvents=0;collapsible=0;recursiveResize=0;shape=mxgraph.aws4.group;grIcon=mxgraph.aws4.group_security_group;grStroke=0;strokeColor=#00A4A6;fillColor=#E6F6F7;verticalAlign=top;align=left;spacingLeft=30;fontColor=#147EBA;dashed=0;" vertex="1" parent="B4_wK3r7UxZ_RFMzxxa5-14">
          <mxGeometry x="530" y="60" width="240" height="170" as="geometry" />
        </mxCell>
        <mxCell id="B4_wK3r7UxZ_RFMzxxa5-27" value="&lt;span style=&quot;color: rgb(35, 47, 62); font-family: Helvetica; font-size: 12px; font-style: normal; font-variant-ligatures: normal; font-variant-caps: normal; font-weight: 400; letter-spacing: normal; orphans: 2; text-align: center; text-indent: 0px; text-transform: none; widows: 2; word-spacing: 0px; -webkit-text-stroke-width: 0px; white-space: nowrap; background-color: rgb(251, 251, 251); text-decoration-thickness: initial; text-decoration-style: initial; text-decoration-color: initial; display: inline !important; float: none;&quot;&gt;&lt;span style=&quot;color: rgb(11, 11, 11); font-family: &amp;quot;Open Sans&amp;quot;, sans-serif; text-align: left; text-wrap: wrap; background-color: rgb(250, 250, 250); font-size: 11px;&quot;&gt;Application Servers&lt;/span&gt;&amp;nbsp;&lt;/span&gt;&lt;br style=&quot;forced-color-adjust: none; color: rgb(35, 47, 62); font-family: Helvetica; font-size: 12px; font-style: normal; font-variant-ligatures: normal; font-variant-caps: normal; font-weight: 400; letter-spacing: normal; orphans: 2; text-align: center; text-indent: 0px; text-transform: none; widows: 2; word-spacing: 0px; -webkit-text-stroke-width: 0px; white-space: nowrap; background-color: rgb(251, 251, 251); text-decoration-thickness: initial; text-decoration-style: initial; text-decoration-color: initial;&quot;&gt;&lt;span style=&quot;color: rgb(35, 47, 62); font-family: Helvetica; font-size: 12px; font-style: normal; font-variant-ligatures: normal; font-variant-caps: normal; font-weight: 400; letter-spacing: normal; orphans: 2; text-align: center; text-indent: 0px; text-transform: none; widows: 2; word-spacing: 0px; -webkit-text-stroke-width: 0px; white-space: nowrap; background-color: rgb(251, 251, 251); text-decoration-thickness: initial; text-decoration-style: initial; text-decoration-color: initial; display: inline !important; float: none;&quot;&gt;c5a.8xlarge&lt;/span&gt;&lt;div&gt;&lt;br&gt;&lt;/div&gt;" style="sketch=0;points=[[0,0,0],[0.25,0,0],[0.5,0,0],[0.75,0,0],[1,0,0],[0,1,0],[0.25,1,0],[0.5,1,0],[0.75,1,0],[1,1,0],[0,0.25,0],[0,0.5,0],[0,0.75,0],[1,0.25,0],[1,0.5,0],[1,0.75,0]];outlineConnect=0;fontColor=#232F3E;fillColor=#ED7100;strokeColor=#ffffff;dashed=0;verticalLabelPosition=bottom;verticalAlign=top;align=center;html=1;fontSize=12;fontStyle=0;aspect=fixed;shape=mxgraph.aws4.resourceIcon;resIcon=mxgraph.aws4.ec2;" vertex="1" parent="B4_wK3r7UxZ_RFMzxxa5-14">
          <mxGeometry x="550" y="96" width="80" height="80" as="geometry" />
        </mxCell>
        <mxCell id="B4_wK3r7UxZ_RFMzxxa5-28" style="edgeStyle=orthogonalEdgeStyle;rounded=0;orthogonalLoop=1;jettySize=auto;html=1;entryX=0.5;entryY=1;entryDx=0;entryDy=0;entryPerimeter=0;" edge="1" parent="B4_wK3r7UxZ_RFMzxxa5-14" source="B4_wK3r7UxZ_RFMzxxa5-19" target="B4_wK3r7UxZ_RFMzxxa5-27">
          <mxGeometry relative="1" as="geometry">
            <Array as="points">
              <mxPoint x="319" y="220" />
              <mxPoint x="589" y="220" />
            </Array>
          </mxGeometry>
        </mxCell>
        <mxCell id="B4_wK3r7UxZ_RFMzxxa5-29" style="edgeStyle=orthogonalEdgeStyle;rounded=0;orthogonalLoop=1;jettySize=auto;html=1;entryX=0;entryY=0.5;entryDx=0;entryDy=0;entryPerimeter=0;" edge="1" parent="B4_wK3r7UxZ_RFMzxxa5-14">
          <mxGeometry relative="1" as="geometry">
            <mxPoint x="630" y="135" as="sourcePoint" />
            <mxPoint x="680" y="135.5" as="targetPoint" />
          </mxGeometry>
        </mxCell>
        <mxCell id="B4_wK3r7UxZ_RFMzxxa5-31" value="Availability Zone us-east-1b" style="fillColor=none;strokeColor=#147EBA;dashed=1;verticalAlign=top;fontStyle=0;fontColor=#147EBA;whiteSpace=wrap;html=1;" vertex="1" parent="B4_wK3r7UxZ_RFMzxxa5-14">
          <mxGeometry x="230" y="299" width="550" height="210" as="geometry" />
        </mxCell>
        <mxCell id="B4_wK3r7UxZ_RFMzxxa5-32" value="Public subnet" style="points=[[0,0],[0.25,0],[0.5,0],[0.75,0],[1,0],[1,0.25],[1,0.5],[1,0.75],[1,1],[0.75,1],[0.5,1],[0.25,1],[0,1],[0,0.75],[0,0.5],[0,0.25]];outlineConnect=0;gradientColor=none;html=1;whiteSpace=wrap;fontSize=12;fontStyle=0;container=1;pointerEvents=0;collapsible=0;recursiveResize=0;shape=mxgraph.aws4.group;grIcon=mxgraph.aws4.group_security_group;grStroke=0;strokeColor=#7AA116;fillColor=#F2F6E8;verticalAlign=top;align=left;spacingLeft=30;fontColor=#248814;dashed=0;" vertex="1" parent="B4_wK3r7UxZ_RFMzxxa5-14">
          <mxGeometry x="260" y="329" width="240" height="170" as="geometry" />
        </mxCell>
        <mxCell id="B4_wK3r7UxZ_RFMzxxa5-33" value="&lt;span style=&quot;color: rgb(35, 47, 62); font-family: Helvetica; font-size: 12px; font-style: normal; font-variant-ligatures: normal; font-variant-caps: normal; font-weight: 400; letter-spacing: normal; orphans: 2; text-align: center; text-indent: 0px; text-transform: none; widows: 2; word-spacing: 0px; -webkit-text-stroke-width: 0px; white-space: nowrap; background-color: rgb(251, 251, 251); text-decoration-thickness: initial; text-decoration-style: initial; text-decoration-color: initial; display: inline !important; float: none;&quot;&gt;Web service&amp;nbsp;&lt;/span&gt;&lt;br style=&quot;forced-color-adjust: none; color: rgb(35, 47, 62); font-family: Helvetica; font-size: 12px; font-style: normal; font-variant-ligatures: normal; font-variant-caps: normal; font-weight: 400; letter-spacing: normal; orphans: 2; text-align: center; text-indent: 0px; text-transform: none; widows: 2; word-spacing: 0px; -webkit-text-stroke-width: 0px; white-space: nowrap; background-color: rgb(251, 251, 251); text-decoration-thickness: initial; text-decoration-style: initial; text-decoration-color: initial;&quot;&gt;&lt;span style=&quot;color: rgb(35, 47, 62); font-family: Helvetica; font-size: 12px; font-style: normal; font-variant-ligatures: normal; font-variant-caps: normal; font-weight: 400; letter-spacing: normal; orphans: 2; text-align: center; text-indent: 0px; text-transform: none; widows: 2; word-spacing: 0px; -webkit-text-stroke-width: 0px; white-space: nowrap; background-color: rgb(251, 251, 251); text-decoration-thickness: initial; text-decoration-style: initial; text-decoration-color: initial; display: inline !important; float: none;&quot;&gt;c5a.8xlarge&lt;/span&gt;&lt;div&gt;&lt;br/&gt;&lt;/div&gt;" style="sketch=0;points=[[0,0,0],[0.25,0,0],[0.5,0,0],[0.75,0,0],[1,0,0],[0,1,0],[0.25,1,0],[0.5,1,0],[0.75,1,0],[1,1,0],[0,0.25,0],[0,0.5,0],[0,0.75,0],[1,0.25,0],[1,0.5,0],[1,0.75,0]];outlineConnect=0;fontColor=#232F3E;fillColor=#ED7100;strokeColor=#ffffff;dashed=0;verticalLabelPosition=bottom;verticalAlign=top;align=center;html=1;fontSize=12;fontStyle=0;aspect=fixed;shape=mxgraph.aws4.resourceIcon;resIcon=mxgraph.aws4.ec2;" vertex="1" parent="B4_wK3r7UxZ_RFMzxxa5-14">
          <mxGeometry x="390" y="365" width="78" height="78" as="geometry" />
        </mxCell>
        <mxCell id="B4_wK3r7UxZ_RFMzxxa5-34" value="" style="sketch=0;outlineConnect=0;fontColor=#232F3E;gradientColor=none;fillColor=#8C4FFF;strokeColor=none;dashed=0;verticalLabelPosition=bottom;verticalAlign=top;align=center;html=1;fontSize=12;fontStyle=0;aspect=fixed;pointerEvents=1;shape=mxgraph.aws4.nat_gateway;" vertex="1" parent="B4_wK3r7UxZ_RFMzxxa5-14">
          <mxGeometry x="280" y="369" width="78" height="78" as="geometry" />
        </mxCell>
        <mxCell id="B4_wK3r7UxZ_RFMzxxa5-35" value="Private subnet" style="points=[[0,0],[0.25,0],[0.5,0],[0.75,0],[1,0],[1,0.25],[1,0.5],[1,0.75],[1,1],[0.75,1],[0.5,1],[0.25,1],[0,1],[0,0.75],[0,0.5],[0,0.25]];outlineConnect=0;gradientColor=none;html=1;whiteSpace=wrap;fontSize=12;fontStyle=0;container=1;pointerEvents=0;collapsible=0;recursiveResize=0;shape=mxgraph.aws4.group;grIcon=mxgraph.aws4.group_security_group;grStroke=0;strokeColor=#00A4A6;fillColor=#E6F6F7;verticalAlign=top;align=left;spacingLeft=30;fontColor=#147EBA;dashed=0;" vertex="1" parent="B4_wK3r7UxZ_RFMzxxa5-14">
          <mxGeometry x="530" y="329" width="240" height="170" as="geometry" />
        </mxCell>
        <mxCell id="B4_wK3r7UxZ_RFMzxxa5-52" style="edgeStyle=orthogonalEdgeStyle;rounded=0;orthogonalLoop=1;jettySize=auto;html=1;" edge="1" parent="B4_wK3r7UxZ_RFMzxxa5-14" source="B4_wK3r7UxZ_RFMzxxa5-36" target="B4_wK3r7UxZ_RFMzxxa5-47">
          <mxGeometry relative="1" as="geometry" />
        </mxCell>
        <mxCell id="B4_wK3r7UxZ_RFMzxxa5-36" value="&lt;span style=&quot;color: rgb(35, 47, 62); font-family: Helvetica; font-size: 12px; font-style: normal; font-variant-ligatures: normal; font-variant-caps: normal; font-weight: 400; letter-spacing: normal; orphans: 2; text-align: center; text-indent: 0px; text-transform: none; widows: 2; word-spacing: 0px; -webkit-text-stroke-width: 0px; white-space: nowrap; background-color: rgb(251, 251, 251); text-decoration-thickness: initial; text-decoration-style: initial; text-decoration-color: initial; display: inline !important; float: none;&quot;&gt;&lt;span style=&quot;color: rgb(11, 11, 11); font-family: &amp;quot;Open Sans&amp;quot;, sans-serif; font-size: 11px; text-align: left; text-wrap: wrap; background-color: rgb(250, 250, 250);&quot;&gt;Application Servers&lt;/span&gt;&amp;nbsp;&lt;/span&gt;&lt;br style=&quot;forced-color-adjust: none; color: rgb(35, 47, 62); font-family: Helvetica; font-size: 12px; font-style: normal; font-variant-ligatures: normal; font-variant-caps: normal; font-weight: 400; letter-spacing: normal; orphans: 2; text-align: center; text-indent: 0px; text-transform: none; widows: 2; word-spacing: 0px; -webkit-text-stroke-width: 0px; white-space: nowrap; background-color: rgb(251, 251, 251); text-decoration-thickness: initial; text-decoration-style: initial; text-decoration-color: initial;&quot;&gt;&lt;span style=&quot;color: rgb(35, 47, 62); font-family: Helvetica; font-size: 12px; font-style: normal; font-variant-ligatures: normal; font-variant-caps: normal; font-weight: 400; letter-spacing: normal; orphans: 2; text-align: center; text-indent: 0px; text-transform: none; widows: 2; word-spacing: 0px; -webkit-text-stroke-width: 0px; white-space: nowrap; background-color: rgb(251, 251, 251); text-decoration-thickness: initial; text-decoration-style: initial; text-decoration-color: initial; display: inline !important; float: none;&quot;&gt;c5a.8xlarge&lt;/span&gt;&lt;div&gt;&lt;br&gt;&lt;/div&gt;" style="sketch=0;points=[[0,0,0],[0.25,0,0],[0.5,0,0],[0.75,0,0],[1,0,0],[0,1,0],[0.25,1,0],[0.5,1,0],[0.75,1,0],[1,1,0],[0,0.25,0],[0,0.5,0],[0,0.75,0],[1,0.25,0],[1,0.5,0],[1,0.75,0]];outlineConnect=0;fontColor=#232F3E;fillColor=#ED7100;strokeColor=#ffffff;dashed=0;verticalLabelPosition=bottom;verticalAlign=top;align=center;html=1;fontSize=12;fontStyle=0;aspect=fixed;shape=mxgraph.aws4.resourceIcon;resIcon=mxgraph.aws4.ec2;" vertex="1" parent="B4_wK3r7UxZ_RFMzxxa5-14">
          <mxGeometry x="550" y="365" width="80" height="80" as="geometry" />
        </mxCell>
        <mxCell id="B4_wK3r7UxZ_RFMzxxa5-38" style="edgeStyle=orthogonalEdgeStyle;rounded=0;orthogonalLoop=1;jettySize=auto;html=1;entryX=0.5;entryY=1;entryDx=0;entryDy=0;entryPerimeter=0;" edge="1" parent="B4_wK3r7UxZ_RFMzxxa5-14" source="B4_wK3r7UxZ_RFMzxxa5-34" target="B4_wK3r7UxZ_RFMzxxa5-36">
          <mxGeometry relative="1" as="geometry">
            <Array as="points">
              <mxPoint x="319" y="489" />
              <mxPoint x="589" y="489" />
            </Array>
          </mxGeometry>
        </mxCell>
        <mxCell id="B4_wK3r7UxZ_RFMzxxa5-40" value="Auto Scaling group" style="points=[[0,0],[0.25,0],[0.5,0],[0.75,0],[1,0],[1,0.25],[1,0.5],[1,0.75],[1,1],[0.75,1],[0.5,1],[0.25,1],[0,1],[0,0.75],[0,0.5],[0,0.25]];outlineConnect=0;gradientColor=none;html=1;whiteSpace=wrap;fontSize=12;fontStyle=0;container=1;pointerEvents=0;collapsible=0;recursiveResize=0;shape=mxgraph.aws4.groupCenter;grIcon=mxgraph.aws4.group_auto_scaling_group;grStroke=1;strokeColor=#D86613;fillColor=none;verticalAlign=top;align=center;fontColor=#D86613;dashed=1;spacingTop=25;" vertex="1" parent="B4_wK3r7UxZ_RFMzxxa5-14">
          <mxGeometry x="370" y="50" width="130" height="460" as="geometry" />
        </mxCell>
        <mxCell id="B4_wK3r7UxZ_RFMzxxa5-41" value="Auto Scaling group" style="points=[[0,0],[0.25,0],[0.5,0],[0.75,0],[1,0],[1,0.25],[1,0.5],[1,0.75],[1,1],[0.75,1],[0.5,1],[0.25,1],[0,1],[0,0.75],[0,0.5],[0,0.25]];outlineConnect=0;gradientColor=none;html=1;whiteSpace=wrap;fontSize=12;fontStyle=0;container=1;pointerEvents=0;collapsible=0;recursiveResize=0;shape=mxgraph.aws4.groupCenter;grIcon=mxgraph.aws4.group_auto_scaling_group;grStroke=1;strokeColor=#D86613;fillColor=none;verticalAlign=top;align=center;fontColor=#D86613;dashed=1;spacingTop=25;" vertex="1" parent="B4_wK3r7UxZ_RFMzxxa5-14">
          <mxGeometry x="520" y="25" width="130" height="485" as="geometry" />
        </mxCell>
        <mxCell id="B4_wK3r7UxZ_RFMzxxa5-47" value="RDS replica" style="outlineConnect=0;dashed=0;verticalLabelPosition=bottom;verticalAlign=top;align=center;html=1;shape=mxgraph.aws3.rds_db_instance_read_replica;fillColor=#2E73B8;gradientColor=none;" vertex="1" parent="B4_wK3r7UxZ_RFMzxxa5-14">
          <mxGeometry x="688" y="372" width="49.5" height="66" as="geometry" />
        </mxCell>
        <mxCell id="B4_wK3r7UxZ_RFMzxxa5-48" value="RDS master" style="outlineConnect=0;dashed=0;verticalLabelPosition=bottom;verticalAlign=top;align=center;html=1;shape=mxgraph.aws3.rds_db_instance;fillColor=#2E73B8;gradientColor=none;" vertex="1" parent="B4_wK3r7UxZ_RFMzxxa5-14">
          <mxGeometry x="680" y="96" width="49.5" height="66" as="geometry" />
        </mxCell>
        <mxCell id="B4_wK3r7UxZ_RFMzxxa5-54" style="edgeStyle=orthogonalEdgeStyle;rounded=0;orthogonalLoop=1;jettySize=auto;html=1;" edge="1" parent="B4_wK3r7UxZ_RFMzxxa5-9" source="B4_wK3r7UxZ_RFMzxxa5-13" target="B4_wK3r7UxZ_RFMzxxa5-15">
          <mxGeometry relative="1" as="geometry" />
        </mxCell>
        <mxCell id="B4_wK3r7UxZ_RFMzxxa5-13" value="" style="outlineConnect=0;dashed=0;verticalLabelPosition=bottom;verticalAlign=top;align=center;html=1;shape=mxgraph.aws3.internet_gateway;fillColor=#F58536;gradientColor=none;" vertex="1" parent="B4_wK3r7UxZ_RFMzxxa5-9">
          <mxGeometry x="-30" y="264" width="69" height="72" as="geometry" />
        </mxCell>
        <mxCell id="B4_wK3r7UxZ_RFMzxxa5-55" style="edgeStyle=orthogonalEdgeStyle;rounded=0;orthogonalLoop=1;jettySize=auto;html=1;" edge="1" parent="B4_wK3r7UxZ_RFMzxxa5-9" source="B4_wK3r7UxZ_RFMzxxa5-19" target="B4_wK3r7UxZ_RFMzxxa5-13">
          <mxGeometry relative="1" as="geometry" />
        </mxCell>
        <mxCell id="B4_wK3r7UxZ_RFMzxxa5-56" style="edgeStyle=orthogonalEdgeStyle;rounded=0;orthogonalLoop=1;jettySize=auto;html=1;" edge="1" parent="B4_wK3r7UxZ_RFMzxxa5-9" source="B4_wK3r7UxZ_RFMzxxa5-34" target="B4_wK3r7UxZ_RFMzxxa5-13">
          <mxGeometry relative="1" as="geometry" />
        </mxCell>
        <mxCell id="B4_wK3r7UxZ_RFMzxxa5-10" value="" style="sketch=0;points=[[0,0,0],[0.25,0,0],[0.5,0,0],[0.75,0,0],[1,0,0],[0,1,0],[0.25,1,0],[0.5,1,0],[0.75,1,0],[1,1,0],[0,0.25,0],[0,0.5,0],[0,0.75,0],[1,0.25,0],[1,0.5,0],[1,0.75,0]];outlineConnect=0;fontColor=#232F3E;fillColor=#8C4FFF;strokeColor=#ffffff;dashed=0;verticalLabelPosition=bottom;verticalAlign=top;align=center;html=1;fontSize=12;fontStyle=0;aspect=fixed;shape=mxgraph.aws4.resourceIcon;resIcon=mxgraph.aws4.route_53;" vertex="1" parent="B4_wK3r7UxZ_RFMzxxa5-6">
          <mxGeometry x="32" y="311" width="78" height="78" as="geometry" />
        </mxCell>
        <mxCell id="B4_wK3r7UxZ_RFMzxxa5-11" value="" style="outlineConnect=0;dashed=0;verticalLabelPosition=bottom;verticalAlign=top;align=center;html=1;shape=mxgraph.aws3.cloudfront;fillColor=#F58536;gradientColor=none;" vertex="1" parent="B4_wK3r7UxZ_RFMzxxa5-6">
          <mxGeometry x="32" y="420" width="76.5" height="93" as="geometry" />
        </mxCell>
        <mxCell id="B4_wK3r7UxZ_RFMzxxa5-12" value="&#xa;&lt;span style=&quot;color: rgb(31, 35, 40); font-family: -apple-system, BlinkMacSystemFont, &amp;quot;Segoe UI&amp;quot;, &amp;quot;Noto Sans&amp;quot;, Helvetica, Arial, sans-serif, &amp;quot;Apple Color Emoji&amp;quot;, &amp;quot;Segoe UI Emoji&amp;quot;; font-size: 12px; font-style: normal; font-variant-ligatures: normal; font-variant-caps: normal; font-weight: 400; letter-spacing: normal; orphans: 2; text-align: start; text-indent: 0px; text-transform: none; widows: 2; word-spacing: 0px; -webkit-text-stroke-width: 0px; white-space: nowrap; background-color: rgb(255, 255, 255); text-decoration-thickness: initial; text-decoration-style: initial; text-decoration-color: initial; display: inline !important; float: none;&quot;&gt;S3 (10 terabyte)&lt;/span&gt;&#xa;&#xa;" style="sketch=0;points=[[0,0,0],[0.25,0,0],[0.5,0,0],[0.75,0,0],[1,0,0],[0,1,0],[0.25,1,0],[0.5,1,0],[0.75,1,0],[1,1,0],[0,0.25,0],[0,0.5,0],[0,0.75,0],[1,0.25,0],[1,0.5,0],[1,0.75,0]];outlineConnect=0;fontColor=#232F3E;fillColor=#7AA116;strokeColor=#ffffff;dashed=0;verticalLabelPosition=bottom;verticalAlign=top;align=center;html=1;fontSize=12;fontStyle=0;aspect=fixed;shape=mxgraph.aws4.resourceIcon;resIcon=mxgraph.aws4.s3;" vertex="1" parent="B4_wK3r7UxZ_RFMzxxa5-6">
          <mxGeometry x="32" y="560" width="78" height="78" as="geometry" />
        </mxCell>
        <mxCell id="B4_wK3r7UxZ_RFMzxxa5-45" style="edgeStyle=orthogonalEdgeStyle;rounded=0;orthogonalLoop=1;jettySize=auto;html=1;entryX=0.5;entryY=0;entryDx=0;entryDy=0;entryPerimeter=0;" edge="1" parent="B4_wK3r7UxZ_RFMzxxa5-6" source="B4_wK3r7UxZ_RFMzxxa5-10" target="B4_wK3r7UxZ_RFMzxxa5-11">
          <mxGeometry relative="1" as="geometry" />
        </mxCell>
        <mxCell id="B4_wK3r7UxZ_RFMzxxa5-46" style="edgeStyle=orthogonalEdgeStyle;rounded=0;orthogonalLoop=1;jettySize=auto;html=1;entryX=0.5;entryY=0;entryDx=0;entryDy=0;entryPerimeter=0;" edge="1" parent="B4_wK3r7UxZ_RFMzxxa5-6" source="B4_wK3r7UxZ_RFMzxxa5-11" target="B4_wK3r7UxZ_RFMzxxa5-12">
          <mxGeometry relative="1" as="geometry" />
        </mxCell>
        <mxCell id="B4_wK3r7UxZ_RFMzxxa5-53" style="edgeStyle=orthogonalEdgeStyle;rounded=0;orthogonalLoop=1;jettySize=auto;html=1;entryX=0;entryY=0.5;entryDx=0;entryDy=0;entryPerimeter=0;" edge="1" parent="B4_wK3r7UxZ_RFMzxxa5-6" source="B4_wK3r7UxZ_RFMzxxa5-10" target="B4_wK3r7UxZ_RFMzxxa5-13">
          <mxGeometry relative="1" as="geometry" />
        </mxCell>
        <mxCell id="B4_wK3r7UxZ_RFMzxxa5-57" style="edgeStyle=orthogonalEdgeStyle;rounded=0;orthogonalLoop=1;jettySize=auto;html=1;" edge="1" parent="1" source="B4_wK3r7UxZ_RFMzxxa5-7" target="B4_wK3r7UxZ_RFMzxxa5-10">
          <mxGeometry relative="1" as="geometry" />
        </mxCell>
        <mxCell id="B4_wK3r7UxZ_RFMzxxa5-7" value="" style="sketch=0;outlineConnect=0;fontColor=#232F3E;gradientColor=none;fillColor=#232F3D;strokeColor=none;dashed=0;verticalLabelPosition=bottom;verticalAlign=top;align=center;html=1;fontSize=12;fontStyle=0;aspect=fixed;pointerEvents=1;shape=mxgraph.aws4.users;" vertex="1" parent="1">
          <mxGeometry x="40" y="240" width="78" height="78" as="geometry" />
        </mxCell>
        <mxCell id="B4_wK3r7UxZ_RFMzxxa5-8" value="Client" style="sketch=0;outlineConnect=0;fontColor=#232F3E;gradientColor=none;strokeColor=#232F3E;fillColor=#ffffff;dashed=0;verticalLabelPosition=bottom;verticalAlign=top;align=center;html=1;fontSize=12;fontStyle=0;aspect=fixed;shape=mxgraph.aws4.resourceIcon;resIcon=mxgraph.aws4.client;" vertex="1" parent="1">
          <mxGeometry x="49" y="390" width="60" height="60" as="geometry" />
        </mxCell>
        <mxCell id="B4_wK3r7UxZ_RFMzxxa5-44" style="edgeStyle=orthogonalEdgeStyle;rounded=0;orthogonalLoop=1;jettySize=auto;html=1;entryX=0;entryY=0.5;entryDx=0;entryDy=0;entryPerimeter=0;" edge="1" parent="1" source="B4_wK3r7UxZ_RFMzxxa5-8" target="B4_wK3r7UxZ_RFMzxxa5-10">
          <mxGeometry relative="1" as="geometry" />
        </mxCell>
      </root>
    </mxGraphModel>
  </diagram>
</mxfile>
